<svg width="120" height="120" viewBox="0 0 120 120" xmlns="http://www.w3.org/2000/svg">
 <polygon points="100,55 60,40 20,55 20,85, 60,100, 100,85 100,55" fill="#1E5AFF" stroke="#0D38DD" stroke-width="2" stroke-linecap="round" stroke-linejoin="round"/>
 <polyline points="20,55 60,70, 60,100 60,70, 100,55" fill="#1E5AFF" stroke="#0D38DD" stroke-width="2" stroke-linecap="round" stroke-linejoin="round"/>
 <polygon points="60,40 20,55 60,70 100,55" fill="#4F8DFF" stroke="#0D38DD" stroke-width="2" stroke-linecap="round" stroke-linejoin="round"/>

<polygon points="100,35 60,20 20,35 20,45, 60,60, 100,45 100,35" fill="#1E5AFF" stroke="#0D38DD" stroke-width="2" stroke-linecap="round" stroke-linejoin="round"/>
<polyline points="20,35 60,50, 60,60 60,50, 100,35" fill="none" stroke="#0D38DD" stroke-width="2" stroke-linecap="round" stroke-linejoin="round"/>
<polygon points="20,35 60,20 100,35 60,50" fill="#4F8DFF" stroke="#0D38DD" stroke-width="2" stroke-linecap="round" stroke-linejoin="round"/>
</svg>
